<svg width="701" height="145" viewBox="0 0 701 145" fill="none" xmlns="http://www.w3.org/2000/svg">
<path fill-rule="evenodd" clip-rule="evenodd" d="M645.596 69.1411C645.067 69.1707 644.628 69.2483 644.185 69.2352C639.585 69.1903 634.984 69.1454 630.386 69.1457C629.235 69.1118 627.824 69.206 627.218 69.55C625.659 70.3634 623.805 70.4445 621.682 70.4273C618.764 70.4319 618.33 70.6452 616.802 72.2284C620.474 73.3766 624.429 72.7694 628.162 73.2411C627.729 73.4545 627.205 73.6199 626.16 74.0415C628.123 74.461 629.557 74.9555 630.976 75.0425C635.143 75.3008 639.215 75.4207 643.379 75.5884C644.53 75.6223 645.681 75.6561 646.835 75.7806C649.766 76.0929 652.404 75.7183 655.396 75.3541C654.762 74.9736 654.397 74.6915 653.761 74.2658C656.151 74.3361 658.365 74.4013 660.578 74.4664C659.681 76.3395 659.42 76.4675 655.969 76.4112C653.138 76.3731 650.218 76.3324 647.388 76.3396C646.414 76.3109 645.267 76.3676 644.391 76.5679C641.064 77.4198 637.434 77.313 633.71 77.0677C633.09 77.0494 632.375 76.8475 632.024 76.9276C628.785 77.7368 625.218 76.9987 621.864 77.1713C619.481 77.2821 617.199 77.7124 614.823 78.0043C614.888 78.157 614.923 78.2937 614.927 78.4144C616.172 78.5868 617.331 78.8017 618.576 78.9741C623.465 79.6154 628.102 80.566 633.138 80.4428C637.912 80.4024 642.787 80.6815 648.276 80.8431C647.313 81.0861 646.879 81.2995 646.437 81.2864C641.668 81.4627 636.81 81.5911 632.036 81.6315C630.534 81.6777 629.024 81.4976 627.605 81.4107C625.833 81.3133 624.056 81.1253 622.378 81.1664C615.578 81.4185 608.781 81.716 601.891 81.9203C599.772 81.9936 597.558 81.9284 595.437 81.9565C593.227 81.9819 591.015 81.962 588.899 82.1259C587.313 82.2601 586.005 82.7191 586.321 83.9947C593.587 84.3442 600.746 84.2383 608.346 84.1002C606.622 85.2253 604.322 85.2029 602.379 85.2814C592.488 85.6235 582.594 85.875 572.701 86.1718C572.26 86.2041 571.729 86.1884 571.378 86.2686C570.939 86.3461 570.417 86.5569 570.511 86.6953C570.522 86.967 570.802 87.3371 571.248 87.4406C571.874 87.5947 572.761 87.666 573.558 87.6895C576.747 87.8286 579.933 87.8771 583.386 87.9787C582.793 88.6397 582.372 89.17 581.778 89.7857C584.642 90.6388 587.367 90.2215 590.026 90.3902C592.686 90.559 595.252 90.5892 597.829 90.8912C591.664 91.5238 584.904 90.5561 578.844 91.5988C578.528 92.5393 579.426 92.8823 580.933 92.9719C583.5 93.0474 586.07 93.1683 588.549 93.2412C595.278 93.4392 601.916 93.5894 608.645 93.7874C610.416 93.8395 612.286 94.1659 614.063 94.3539C616.547 94.5627 619.126 94.9099 621.605 94.9829C630.368 95.1955 639.13 95.3629 647.805 95.573C649.22 95.5694 650.555 95.7896 651.892 96.0551C647.675 96.745 643.147 96.2952 638.733 96.4819C634.318 96.6686 629.72 96.6689 625.213 96.7624C625.221 96.9435 625.227 97.1096 625.233 97.2605C626.034 97.3745 626.748 97.5312 627.544 97.5546C633.299 97.724 639.053 97.8481 644.81 98.0627C647.643 98.1461 650.556 98.0057 653.947 98.7839C646.875 98.8471 640.509 98.8859 633.789 98.9143C634.299 100.603 632.191 100.948 629.542 101.051C625.598 101.206 621.625 101.375 617.623 101.559C615.947 101.646 614.272 101.777 612.6 101.999C611.72 102.109 610.942 102.538 610.253 103.016C613.553 103.701 616.82 103.571 620.274 103.718C619.601 104.557 618.271 104.473 617.21 104.487C613.412 104.601 609.608 104.58 605.81 104.694C604.395 104.698 602.896 104.789 601.488 104.974C601.047 105.006 600.621 105.401 600.717 105.584C600.726 105.811 601.358 106.146 601.803 106.204C603.136 106.379 604.464 106.418 606.503 106.523C602.383 107.442 598.303 107.141 594.602 107.485C590.992 107.876 587.294 108.265 583.691 108.837C586.459 109.506 589.102 109.268 591.751 109.165C594.577 109.067 597.411 109.15 600.43 109.465C599.993 109.588 599.471 109.799 599.03 109.831C594.961 109.802 590.974 109.639 587.001 109.794C575.699 110.23 564.266 109.622 553.046 109.88C531.491 110.467 509.898 110.103 488.224 109.917C484.067 109.885 479.902 109.672 475.831 109.598C474.327 109.599 472.826 109.645 471.413 109.694C470.795 109.721 470.267 109.796 469.736 109.78C466.545 109.596 463.35 109.321 460.074 109.224C447.057 108.796 434.044 108.458 421.027 108.03C415.449 107.866 409.779 107.609 404.197 107.354C403.755 107.341 403.223 107.325 402.784 107.403C395.916 108.15 388.898 107.356 381.905 107.195C363.674 106.84 345.435 106.303 327.288 105.859C314.805 105.537 302.41 105.172 289.93 104.896C281.695 104.653 273.376 104.499 265.054 104.254C247.82 103.807 230.557 103.344 213.264 102.866C205.561 102.639 197.856 102.367 190.155 102.186C188.296 102.131 186.532 102.26 184.765 102.298C184.359 103.191 184.995 103.617 186.242 103.834C187.309 104.001 188.549 104.038 189.702 104.117C197.233 104.474 204.853 104.834 212.473 105.194C212.915 105.207 213.273 105.308 213.732 105.729C210.019 105.755 206.398 105.875 202.768 105.768C193.294 105.489 183.817 105.12 174.428 104.753C167.697 104.51 161.057 104.314 154.411 103.983C143.333 103.386 132.254 102.788 121.257 102.012C111.946 101.376 102.713 100.472 93.3982 99.7452C79.1125 98.556 64.9191 97.4599 50.6353 96.3159C47.8851 96.0993 45.1331 95.8374 42.4679 95.5328C41.6692 95.4641 40.9536 95.2621 40.2399 95.1055C40.2351 94.9847 40.2302 94.864 40.2254 94.7432C41.4631 94.7344 42.699 94.6803 43.9404 94.7621C49.5256 95.1074 55.0259 95.5406 60.5244 95.9285C60.7033 95.979 60.9707 96.0321 61.1478 96.0373C64.6821 95.9604 68.1279 95.8809 71.4851 95.7988C69.8642 95.0727 65.6884 94.588 58.0631 94.0923C53.2748 93.7705 48.4791 93.2675 43.6004 92.8978C38.9855 92.4907 34.3742 92.174 29.7611 91.8122C29.7551 91.6612 29.749 91.5103 29.743 91.3594C32.4841 91.3496 35.2233 91.2945 38.4053 91.2525C35.8609 89.5494 32.455 90.6251 29.5909 89.772C32.4873 89.224 35.6134 89.9944 38.2315 89.1217C35.9872 88.2868 33.7864 88.5386 31.6596 88.4308C29.4733 88.3062 27.2845 88.1212 25.0932 87.8758C23.1381 87.6373 20.9519 88.2514 19.0581 87.3364C28.2661 87.6073 37.2717 87.2392 46.4762 87.4196C46.5291 87.2704 46.5526 87.1204 46.5465 86.9694C46.0099 86.818 45.5563 86.5333 44.9347 86.4697C42.5369 86.2183 40.0524 86.0095 37.4793 85.7981C32.512 85.4258 27.5303 84.6912 22.3986 84.6306C18.8589 84.5717 15.3028 84.1052 11.7576 83.9105C9.09781 83.7417 6.9511 83.1358 5.21807 81.8185C6.00766 81.6608 6.61655 81.4074 7.32486 81.4282C11.8331 81.38 16.4317 81.3797 21.0285 81.334C24.3893 81.3425 27.5731 81.3457 30.4477 80.2544C31.4921 79.8329 33.4381 79.845 34.9415 79.844C44.0157 79.7191 53.0611 79.6084 62.0776 79.5119C68.5319 79.4757 74.8958 79.3916 81.3519 79.4007C83.298 79.4127 85.2531 79.6512 87.2028 79.7538C89.3867 79.8181 91.5393 79.8362 93.6607 79.8081C94.9869 79.8019 96.0367 79.5163 96.1702 78.4348C90.8524 78.1426 85.6214 77.8077 80.2151 77.513C81.8465 76.2946 84.2171 75.8669 86.9564 75.8118C92.6084 75.6164 98.2513 75.1945 104.012 75.4997C104.986 75.5284 105.866 75.4186 106.838 75.402C106.892 75.2829 106.917 75.1631 106.912 75.0423C106.377 74.9361 105.748 74.6915 105.217 74.6759C101.679 74.6622 98.1446 74.7391 94.6085 74.7707C87.979 74.847 81.3476 74.8779 74.6295 74.9516C71.2687 74.9431 67.8211 74.9774 64.368 74.8757C60.915 74.7741 57.4565 74.5367 54.4045 73.4067C53.7756 73.162 52.8035 73.1786 52.0049 73.1099C45.3095 72.2797 38.6148 71.4646 31.9207 70.6646C31.6532 70.6115 31.4689 70.4252 31.1093 70.2789C32.2349 69.6789 33.4023 70.1202 34.6454 70.2473C38.8195 70.6867 43.0008 71.3072 47.1294 70.6147C48.0076 70.4596 48.8821 70.214 49.6608 69.7846C41.4248 69.497 33.4345 68.7192 25.511 67.4006C26.2157 67.3309 26.9186 67.2159 27.6251 67.1914C28.7725 67.1348 29.9253 67.2139 31.0745 67.2025C32.4875 67.1536 34.3595 67.5253 34.849 66.4995C35.2518 65.5164 33.1287 65.4991 32.1384 65.0629C32.1366 65.0177 32.0462 64.9698 31.9541 64.8766C32.6515 64.6258 33.2604 64.3723 34.4818 63.956C32.7905 63.6801 31.634 63.5104 30.2102 63.2876C30.5516 62.9811 30.7124 62.5788 31.0629 62.4986C32.7343 62.2764 34.4111 62.1901 36.0843 62.0132C39.698 61.7125 43.3082 61.3213 47.361 60.9431C45.9081 59.9958 44.2186 59.7652 43.073 59.8671C40.9554 59.9857 38.5521 59.5984 36.9098 60.545C36.7363 60.6304 36.2033 60.5695 35.7606 60.5565C35.2275 60.4955 34.6005 60.2962 34.25 60.3763C29.2468 61.3145 24.0879 60.5748 19.0249 60.0187C17.4275 59.8813 15.9873 59.2509 14.1099 58.7434C17.7959 58.0378 24.1453 57.5915 26.8918 57.7176C28.8415 57.8202 30.6899 57.6032 33.1436 57.0422C28.9569 56.2859 25.6251 57.0019 21.8955 56.6208C23.4457 55.581 25.2724 54.8207 27.6557 54.7099C31.1863 54.5424 32.5395 52.9993 35.2534 52.3103C35.1883 52.1577 35.1238 52.0201 35.0599 51.8976C33.1988 51.7976 31.2546 51.8309 29.4747 51.5523C27.7834 51.2764 26.1661 50.6409 24.4657 50.1386C25.0529 49.3418 25.5533 48.5877 26.0518 47.7883C23.1914 47.0257 22.2973 48.9894 19.7169 48.5968C19.1694 48.1737 18.5297 47.6574 17.8936 47.2316C19.1182 44.6898 24.0547 44.2923 27.6358 43.1766C27.5719 43.0541 27.4792 42.9459 27.3575 42.8518C26.8244 42.7909 26.3799 42.7326 25.8487 42.717C25.3193 42.7466 24.7917 42.8215 23.9984 42.8887C23.5249 42.1059 22.9665 41.411 22.4044 40.6256C24.5979 40.1927 26.8836 39.8529 29.0771 39.42C31.0087 39.0698 33.6975 39.963 35.5096 38.8405C34.5012 37.9515 32.8244 38.0378 31.4927 37.9082C30.161 37.7785 28.8365 37.83 27.4072 37.4714C30.8312 36.8485 34.257 36.2709 37.5889 35.5549C44.8632 33.9147 52.9961 33.8374 60.8416 33.209C71.5095 32.3923 82.2714 31.714 93.0387 31.1716C103.981 30.5891 115.014 30.0545 126.147 29.7941C137.544 29.5416 149.044 29.6087 160.537 29.5399C162.747 29.5145 164.717 30.1151 167.1 30.0044C170.812 29.9327 174.635 30.4522 178.444 30.6096C180.482 30.7148 182.515 30.6841 184.546 30.6082C188.874 30.4642 193.201 30.3202 197.527 30.1309C198.145 30.1039 198.849 30.0342 199.209 30.1804C202.702 31.2782 206.215 30.6579 209.758 30.8074C211.056 30.8457 212.355 30.8839 213.654 30.9221C213.717 31.0446 213.752 31.1662 213.757 31.2869C212.47 31.5506 211.184 31.8293 209.899 32.1232C209.904 32.2439 209.938 32.3655 210.002 32.488C211.509 32.5776 213.014 32.6219 214.523 32.7567C216.032 32.8916 217.456 33.1144 218.961 33.1587C223.923 33.3952 228.885 33.6316 233.841 33.7323C240.566 33.8397 247.375 33.814 254.1 33.9214C258.791 34.0142 263.489 34.2882 268.181 34.4263C268.626 34.4846 269.069 34.4976 269.598 34.468C279.758 34.2242 289.94 34.5239 300.222 35.0978C304.032 35.3004 307.921 35.2339 311.815 35.3033C320.755 35.5212 329.698 35.7843 338.64 36.0475C339.083 36.0605 339.524 36.0283 339.968 36.0866C354.715 37.7416 369.485 37.7693 384.191 38.4282C407.578 39.433 430.962 40.3473 454.347 41.3068C460.546 41.5345 466.831 41.6742 473.028 41.8566C475.508 41.9295 475.961 42.2142 475.922 43.4342C475.936 43.7964 476.569 44.1316 477.029 44.5974C476.587 44.5844 475.88 44.6089 475.172 44.588C471.932 44.6434 468.721 44.6997 465.539 44.7568C465.097 44.7438 464.567 44.7734 464.218 44.8988C461.17 46.0755 457.616 45.6543 454.15 45.2357C452.728 45.0582 449.471 45.4146 447.806 45.8179C447.105 45.9782 445.954 45.9443 445.239 45.7423C442.917 45.1765 440.608 44.9276 437.518 45.0628C437.268 45.4625 436.934 45.9502 436.428 46.5685C438.205 46.7564 439.629 46.9792 441.045 47.0209C457.344 47.6815 473.552 48.2941 489.85 48.9546C494.989 49.1963 500.139 49.7097 505.366 49.954C513.517 50.3295 521.663 50.5692 529.902 50.9474C533.977 51.1125 538.151 51.552 542.228 51.7624C551.149 52.236 560.039 52.6634 568.898 53.0447C578.998 53.5229 589.186 53.9583 599.283 54.3459C601.587 54.459 603.799 54.4788 606.012 54.544C606.751 55.3346 606.413 55.7317 605.091 55.8284C604.209 55.8929 603.231 55.7737 602.35 55.8382C601.761 55.851 601.235 55.9712 600.772 56.1988C604.52 57.0327 608.477 56.4708 612.214 57.033C612.219 57.1538 612.253 57.2905 612.319 57.4431C610.817 57.4894 609.406 57.5836 607.991 57.5871C603.306 57.6302 598.619 57.6279 593.931 57.6257C593.136 57.6475 592.34 57.624 591.638 57.7843C587.687 58.4821 583.527 58.4049 579.362 58.1919C571.743 57.832 564.235 58.0633 556.722 58.1588C553.892 58.166 550.967 57.9894 548.137 57.9966C547.075 57.9653 546.019 58.1152 544.961 58.1745C544.967 58.3254 544.972 58.4612 544.977 58.582C545.6 58.6908 546.139 58.8875 546.759 58.9058C557.302 59.397 567.934 59.8907 578.477 60.3819C579.984 60.4715 581.497 60.6969 583 60.6959C585.035 60.7106 586.647 61.2103 587.653 62.054C588.387 62.7087 589.276 62.8253 590.515 62.8618C592.64 62.9244 594.856 63.0348 597.071 63.1452C598.755 63.24 600.517 63.0657 601.706 64.0504C601.982 64.3299 603.222 64.3664 604.02 64.4351C606.684 64.6944 609.53 65.0948 612.184 65.1276C615.545 65.1361 617.972 66.112 620.484 67C621.828 67.4466 622.985 67.6163 624.313 67.6554C631.047 67.9893 637.695 68.3658 644.429 68.6997C644.783 68.7101 645.141 68.8111 645.586 68.8694C645.589 68.96 645.593 69.0505 645.596 69.1411ZM157.459 58.6655C156.926 58.6046 156.482 58.5462 156.041 58.5785C150.647 58.6007 145.346 58.716 139.952 58.7382C138.272 58.734 136.416 58.7698 134.812 58.4512C132.582 57.9786 130.914 58.2913 128.894 58.6389C130.961 59.4686 134.866 59.8096 143.805 59.9822C148.759 60.0376 153.718 60.1835 159.028 60.2945C158.381 59.5971 157.92 59.1313 157.459 58.6655ZM165.882 61.4008C169.465 62.5464 178.144 62.8471 180.758 61.8838C176.487 61.2154 172.392 60.5522 168.303 60.0248C166.525 59.7916 165.575 60.3515 165.882 61.4008ZM12.7475 82.1305C16.4012 82.826 23.038 82.9309 24.7816 82.3038C20.7937 82.096 16.7082 81.6592 12.7475 82.1305Z" fill="#000"/>
<path d="M666.567 45.0686C668.196 44.1693 670.194 44.8435 672.065 44.9131C672.142 45.156 672.185 45.3776 672.194 45.5779C670.362 45.6297 668.561 45.6628 666.792 45.677C666.717 45.4742 666.642 45.2714 666.567 45.0686Z" fill="#000"/>
<path d="M689.423 62.0244C690.795 62.0349 692.134 62.0442 693.441 62.0524C693.448 62.2063 693.487 62.3422 693.557 62.46C692.189 62.5265 690.854 62.5942 689.551 62.663C689.54 62.432 689.498 62.2192 689.423 62.0244Z" fill="#000"/>
<path d="M694.377 49.9648C693.469 49.9365 692.562 49.9082 691.655 49.88C691.652 49.8111 691.649 49.725 691.644 49.6216C692.485 49.6134 693.358 49.6062 694.264 49.6C694.335 49.7398 694.372 49.8614 694.377 49.9648Z" fill="#000"/>
<path d="M696.301 112.933C697.026 113.001 697.785 113.071 698.576 113.142C698.516 113.262 698.489 113.383 698.495 113.505C697.771 113.478 697.047 113.43 696.321 113.362C696.315 113.239 696.309 113.097 696.301 112.933Z" fill="#000"/>
<path d="M673.959 55.5212C674.553 55.5443 675.147 55.5675 676.433 55.6176C675.561 55.9598 675.273 56.1367 674.976 56.1251C674.682 56.1764 674.277 55.9725 673.977 55.8981C673.971 55.7725 673.965 55.6468 673.959 55.5212Z" fill="#000"/>
</svg>
