<svg width="20" height="20" viewBox="0 0 20 20" fill="none" xmlns="http://www.w3.org/2000/svg">
<path d="M15.8239 13.0378L15.8239 13.0379C15.7101 13.4122 15.4787 13.7399 15.1639 13.9723C14.8492 14.2047 14.468 14.3295 14.0767 14.3281H14.0766H6.56814C6.17122 14.3266 5.78546 14.1966 5.46863 13.9575C5.1518 13.7184 4.92095 13.3831 4.81065 13.0018L1.98413 3.11212L1.97442 3.07812H1.93906H0.625C0.471672 3.07812 0.324623 3.01722 0.216204 2.9088C0.107784 2.80038 0.046875 2.65333 0.046875 2.5C0.046875 2.34667 0.107784 2.19962 0.216204 2.0912C0.324623 1.98278 0.471672 1.92188 0.625 1.92188H1.93898C2.20024 1.92276 2.45419 2.00822 2.66283 2.16548C2.87146 2.32273 3.02356 2.54332 3.09636 2.79422C3.09637 2.79425 3.09638 2.79428 3.09639 2.79431L3.72993 5.01287L3.73964 5.04688H3.775H17.5C17.5905 5.04684 17.6797 5.06804 17.7605 5.10877C17.8413 5.1495 17.9114 5.20861 17.9651 5.28137C18.0189 5.35412 18.0549 5.43848 18.0701 5.52766C18.0853 5.61684 18.0794 5.70835 18.0528 5.79482L15.8239 13.0378ZM16.6987 6.26379L16.7174 6.20312H16.6539H4.13203H4.06988L4.08696 6.26288L5.92212 12.6848L5.92212 12.6848C5.96226 12.8251 6.04699 12.9485 6.16352 13.0364C6.28004 13.1243 6.42201 13.1718 6.56796 13.1719H14.0765C14.0766 13.1719 14.0766 13.1719 14.0766 13.1719C14.2203 13.1719 14.3603 13.1259 14.4759 13.0405C14.5916 12.955 14.6768 12.8348 14.719 12.6974C14.719 12.6974 14.719 12.6974 14.719 12.6974L16.6987 6.26379ZM7.45312 16.875C7.45312 17.113 7.38256 17.3456 7.25036 17.5434C7.11816 17.7413 6.93026 17.8955 6.71042 17.9865C6.49057 18.0776 6.24867 18.1014 6.01528 18.055C5.7819 18.0086 5.56752 17.894 5.39926 17.7257C5.231 17.5575 5.11642 17.3431 5.06999 17.1097C5.02357 16.8763 5.0474 16.6344 5.13846 16.4146C5.22952 16.1947 5.38373 16.0068 5.58158 15.8746C5.77943 15.7424 6.01204 15.6719 6.25 15.6719C6.56909 15.6719 6.87511 15.7986 7.10074 16.0243C7.32637 16.2499 7.45312 16.5559 7.45312 16.875ZM13.7066 15.8746C13.9044 15.7424 14.137 15.6719 14.375 15.6719C14.6941 15.6719 15.0001 15.7986 15.2257 16.0243C15.4514 16.2499 15.5781 16.5559 15.5781 16.875C15.5781 17.113 15.5076 17.3456 15.3754 17.5434C15.2432 17.7413 15.0553 17.8955 14.8354 17.9865C14.6156 18.0776 14.3737 18.1014 14.1403 18.055C13.9069 18.0086 13.6925 17.894 13.5243 17.7257C13.356 17.5575 13.2414 17.3431 13.195 17.1097C13.1486 16.8763 13.1724 16.6344 13.2635 16.4146C13.3545 16.1947 13.5087 16.0068 13.7066 15.8746Z" fill="#11151D" stroke="#11151D" stroke-width="0.09375"/>
</svg>
